<svg version="1.1" id="Layer_1" xmlns="http://www.w3.org/2000/svg" xmlns:xlink="http://www.w3.org/1999/xlink" x="0px" y="0px"
	 width="100%" viewBox="0 0 1080 1080" enable-background="new 0 0 1080 1080" xml:space="preserve">
<path fill="#4F638C" opacity="1.000000" stroke="none" 
	d="
M656.000000,1081.000000 
	C437.358521,1081.000000 219.217010,1081.000000 1.037763,1081.000000 
	C1.037763,721.066711 1.037763,361.133423 1.037763,1.100076 
	C360.891693,1.100076 720.783447,1.100076 1080.837646,1.100076 
	C1080.837646,360.999939 1080.837646,720.999939 1080.837646,1081.000000 
	C939.466309,1081.000000 797.983154,1081.000000 656.000000,1081.000000 
M657.066711,860.471985 
	C666.099487,881.237671 675.120911,902.008301 684.172119,922.765930 
	C686.888611,928.995789 690.610657,934.547729 698.148193,934.663208 
	C715.807556,934.933899 733.487000,935.140137 751.132507,934.572083 
	C760.928528,934.256775 765.868164,925.702515 762.970276,916.422668 
	C743.518188,854.132385 724.115906,791.826416 704.718506,729.518982 
	C704.305237,728.191406 704.142517,726.785767 703.745361,724.840942 
	C730.061462,724.840942 755.790466,726.165955 781.318298,724.467590 
	C806.758972,722.774963 831.997925,718.049866 857.753235,714.596924 
	C859.819885,731.401367 861.898926,748.398132 864.003845,765.391663 
	C865.600708,778.283752 867.044739,791.198792 868.916138,804.051331 
	C870.021301,811.641052 874.344727,816.066772 881.300537,816.241028 
	C895.119568,816.587097 908.960327,816.562927 922.779175,816.197998 
	C929.264038,816.026794 933.396240,811.588440 934.365601,805.124084 
	C934.684631,802.996460 934.677673,800.807434 934.678345,798.646484 
	C934.694885,745.316040 934.696716,691.985596 934.690796,638.655151 
	C934.689026,622.957275 929.886353,618.623901 914.349304,620.247681 
	C913.686523,620.316956 913.027893,620.426880 912.364990,620.494263 
	C878.394348,623.949646 844.425598,627.425049 810.450623,630.836975 
	C803.388794,631.546021 803.361633,631.436829 803.360962,624.154785 
	C803.356323,572.657532 803.354858,521.160339 803.368225,469.663086 
	C803.369080,466.337219 803.300842,462.993164 803.602600,459.688416 
	C807.049744,421.933502 810.560730,384.184479 814.074036,346.435638 
	C814.131348,345.819550 814.432983,345.226196 814.809448,344.014130 
	C825.142090,344.014130 835.466980,344.474976 845.737244,343.920807 
	C869.078369,342.661377 886.739746,331.483368 899.133545,311.832794 
	C908.014893,297.751129 908.914612,282.024292 908.264893,266.025330 
	C907.908325,257.246490 902.873535,252.292557 893.913452,252.203522 
	C881.082275,252.075989 868.242981,251.938019 855.417358,252.239151 
	C827.861023,252.886139 804.340332,269.401367 794.795532,294.471527 
	C793.988525,296.591309 793.264526,298.742706 792.526672,300.810242 
	C777.107544,297.832336 777.107605,297.832336 777.108093,282.763031 
	C777.108154,281.429779 777.273376,280.071716 777.077148,278.768036 
	C776.537109,275.179626 778.208740,273.553680 781.454285,272.187897 
	C807.229919,261.341125 832.916382,250.282837 858.642395,239.318054 
	C866.051636,236.160156 868.975403,231.945694 868.996582,223.981018 
	C869.024414,213.481659 869.004272,202.982178 869.004639,192.482742 
	C869.004822,186.363251 869.004761,180.243759 869.004761,173.948700 
	C860.041626,173.948700 851.662720,173.948700 842.853882,173.948700 
	C842.853882,186.877670 842.693359,199.359558 842.946106,211.833084 
	C843.028076,215.880249 841.896484,218.114059 837.991943,219.658539 
	C827.777283,223.699051 817.734131,228.173035 807.622009,232.472931 
	C805.597046,233.334030 803.569580,234.189377 801.543274,235.047394 
	C801.173340,234.532791 800.803406,234.018204 800.433533,233.503601 
	C803.390076,230.864166 806.247070,228.101685 809.324585,225.611816 
	C815.001587,221.018814 816.785278,215.137711 816.668518,207.963989 
	C816.375732,189.969742 816.587708,171.967484 816.553589,153.968521 
	C816.549622,151.853775 816.272644,149.739563 816.089172,147.161209 
	C808.862915,147.161209 802.047668,147.359680 795.251465,147.085068 
	C791.317200,146.926102 790.078186,148.209778 790.122437,152.176315 
	C790.311890,169.173279 790.325256,186.175476 790.064331,203.170578 
	C790.026306,205.646439 788.755920,208.670380 787.035400,210.459320 
	C777.449036,220.426834 767.673950,230.222870 757.700317,239.803650 
	C752.923279,244.392563 750.634644,249.461533 750.863464,256.175598 
	C751.230591,266.946991 750.961914,277.740082 750.961914,289.090668 
	C739.474304,285.880493 728.673706,282.576324 717.710205,279.953217 
	C713.852112,279.030182 709.409668,278.994293 705.555054,279.907776 
	C694.592712,282.505524 683.795898,285.801300 672.133545,289.044922 
	C672.133545,286.669922 672.133728,284.902863 672.133606,283.135773 
	C672.132629,273.636292 672.000305,264.134308 672.181763,254.638290 
	C672.284119,249.281662 670.532532,245.054565 666.679016,241.287216 
	C656.312256,231.152283 646.057617,220.896164 636.024658,210.432892 
	C634.313416,208.648300 633.085999,205.614639 633.048706,203.136734 
	C632.792664,186.141495 632.968018,169.140121 632.824707,152.142242 
	C632.810913,150.506363 631.630493,147.495667 630.890137,147.463547 
	C622.990173,147.120682 615.069824,147.250488 606.661499,147.250488 
	C606.661499,149.973221 606.661499,151.944916 606.661499,153.916611 
	C606.661499,172.082291 606.887207,190.252197 606.547913,208.411545 
	C606.416199,215.464249 608.344238,221.039856 613.707764,225.632004 
	C616.701660,228.195358 619.291870,231.230331 622.063965,234.052795 
	C621.776855,234.366028 621.489746,234.679276 621.202637,234.992523 
	C610.517578,230.439194 600.004700,225.404037 589.086243,221.504120 
	C581.960815,218.959015 579.623169,215.128815 580.100159,207.662277 
	C580.808655,196.571854 580.283630,185.402618 580.283630,173.884613 
	C571.315430,173.884613 562.919312,173.884613 554.063293,173.884613 
	C554.063293,176.073822 554.063232,177.881958 554.063232,179.690109 
	C554.063354,193.856018 554.058472,208.021912 554.065491,222.187820 
	C554.070557,232.526138 556.591003,235.965775 566.016296,239.974945 
	C591.750427,250.921219 617.425903,262.006012 643.072998,273.154755 
	C644.293030,273.685120 645.703918,275.279236 645.841248,276.510132 
	C646.221008,279.913483 645.972717,283.386932 645.972717,287.939972 
	C619.708862,286.255127 594.176819,284.617188 568.644714,282.979279 
	C568.661743,283.100922 568.678772,283.222565 568.695801,283.344208 
	C589.369141,288.992279 610.042480,294.640320 630.715820,300.288391 
	C630.727478,300.767517 630.739197,301.246613 630.750854,301.725708 
	C626.808228,301.863098 622.725586,302.725159 618.950256,301.996002 
	C609.317017,300.135406 599.780396,297.720276 590.279785,295.240784 
	C577.236084,291.836578 564.276550,288.110260 551.236511,284.691437 
	C549.715576,284.292755 547.848206,284.779968 546.297913,285.312286 
	C546.003479,285.413391 545.971069,288.365448 546.627930,288.813019 
	C551.126282,291.878052 549.116638,295.651154 548.298950,299.472717 
	C543.990845,319.607574 547.561462,344.210114 571.745728,353.255096 
	C571.864929,353.299652 571.919495,353.517273 572.297913,354.128326 
	C570.287170,354.693970 568.439331,355.308380 566.548340,355.729279 
	C558.587524,357.501282 550.611572,359.205383 542.645386,360.953156 
	C528.824829,363.985443 515.004211,367.017426 501.189728,370.077393 
	C493.190643,371.849243 488.799622,375.882904 488.702179,382.889160 
	C488.451904,400.881927 488.546387,418.881897 488.720123,436.876862 
	C488.776306,442.696381 492.217163,446.427032 497.623047,448.279327 
	C499.818451,449.031525 502.100647,449.555573 504.370514,450.061615 
	C541.414185,458.319672 578.445862,466.633301 615.534241,474.685760 
	C619.270935,475.497040 619.884277,477.127441 619.861145,480.395264 
	C619.745483,496.726898 619.818115,513.059814 619.790405,529.392273 
	C619.788025,530.807312 619.537231,532.221924 619.338196,534.302124 
	C609.177124,529.999634 599.576965,525.921692 589.966797,521.867432 
	C523.549744,493.847748 457.148621,465.790070 390.661682,437.937256 
	C387.148987,436.465698 382.816895,435.927368 379.013214,436.332916 
	C344.900604,439.969849 310.825653,443.958282 276.726105,447.721039 
	C272.149597,448.226013 267.199890,449.160736 262.929077,448.013184 
	C232.268097,439.774567 203.639679,428.052216 183.431717,401.541565 
	C176.977234,393.074005 164.589188,395.870148 161.063873,405.942261 
	C154.834793,423.739258 151.737625,442.089417 153.166641,460.955322 
	C154.211807,474.753876 157.666260,487.861725 166.603180,498.990082 
	C177.731079,512.846741 192.037811,521.154541 209.507004,524.263000 
	C210.814758,524.495728 212.706757,526.146484 212.881241,527.348022 
	C215.967575,548.601196 218.846924,569.884644 221.725906,591.167664 
	C222.382370,596.020691 222.869766,600.896484 223.481857,606.165344 
	C220.716660,606.300354 218.751114,606.472412 216.785004,606.479309 
	C207.452286,606.511902 198.118591,606.423767 188.786789,606.523193 
	C178.244736,606.635620 173.164474,612.117920 173.849457,622.546936 
	C174.111359,626.534302 174.563416,630.509705 174.953125,634.488159 
	C178.444504,670.130371 181.874817,705.778870 185.539032,741.403259 
	C185.906647,744.977295 185.039627,747.261292 182.550217,749.689087 
	C172.291351,759.694336 162.133759,769.807617 152.115936,780.054199 
	C145.703491,786.613281 145.674393,793.871094 152.027252,800.339050 
	C164.638794,813.179443 177.342941,825.931396 190.163544,838.562805 
	C196.094162,844.406006 203.801453,844.132202 209.652817,838.299194 
	C226.172272,821.831482 242.597931,805.268188 259.258423,788.944519 
	C263.639343,784.652222 265.543945,779.930481 265.493896,773.849792 
	C265.318359,752.519104 265.419495,731.185974 265.441833,709.853821 
	C265.444031,707.731445 265.625153,705.609192 265.749847,702.910828 
	C272.986053,704.961121 279.614777,707.131958 286.389587,708.651367 
	C290.592133,709.593872 291.921417,711.451538 291.887604,715.776184 
	C291.683014,741.939880 291.866669,768.106506 291.665924,794.270264 
	C291.644867,797.014282 290.574860,800.195862 288.949768,802.409668 
	C278.401825,816.779053 267.550720,830.925537 256.828949,845.167664 
	C250.725327,853.275269 250.632202,859.554565 257.099945,866.186218 
	C269.316376,878.712524 281.639099,891.141968 294.174286,903.348145 
	C302.137817,911.102539 310.638092,909.953430 316.817444,900.749695 
	C333.439148,875.992798 350.141602,851.288330 366.490967,826.352539 
	C368.722076,822.949707 370.028320,818.383789 370.198090,814.291443 
	C370.688110,802.478882 370.474365,790.631958 370.319977,778.801331 
	C370.277771,775.565369 371.358643,774.068542 374.546356,773.329956 
	C384.437134,771.038208 394.346069,768.751648 404.084808,765.904785 
	C409.748230,764.249268 415.492584,762.175354 420.508362,759.144287 
	C430.905243,752.861389 440.596710,745.402527 451.047424,739.220398 
	C458.491821,734.816650 462.110901,729.058655 463.221375,720.540100 
	C465.066681,706.384460 467.858429,692.352173 470.333527,677.785828 
	C472.207855,678.335571 473.622162,678.679504 474.987701,679.161499 
	C513.915283,692.900391 552.816345,706.714966 591.795105,720.306885 
	C595.633545,721.645386 597.692078,723.690369 599.275818,727.358276 
	C618.350830,771.534546 637.595215,815.637573 657.066711,860.471985 
z"/>
<path fill="#F1A851" opacity="1.000000" stroke="none" 
	d="
M656.931030,860.115845 
	C637.595215,815.637573 618.350830,771.534546 599.275818,727.358276 
	C597.692078,723.690369 595.633545,721.645386 591.795105,720.306885 
	C552.816345,706.714966 513.915283,692.900391 474.987701,679.161499 
	C473.622162,678.679504 472.207855,678.335571 470.333527,677.785828 
	C467.858429,692.352173 465.066681,706.384460 463.221375,720.540100 
	C462.110901,729.058655 458.491821,734.816650 451.047424,739.220398 
	C440.596710,745.402527 430.905243,752.861389 420.508362,759.144287 
	C415.492584,762.175354 409.748230,764.249268 404.084808,765.904785 
	C394.346069,768.751648 384.437134,771.038208 374.546356,773.329956 
	C371.358643,774.068542 370.277771,775.565369 370.319977,778.801331 
	C370.474365,790.631958 370.688110,802.478882 370.198090,814.291443 
	C370.028320,818.383789 368.722076,822.949707 366.490967,826.352539 
	C350.141602,851.288330 333.439148,875.992798 316.817444,900.749695 
	C310.638092,909.953430 302.137817,911.102539 294.174286,903.348145 
	C281.639099,891.141968 269.316376,878.712524 257.099945,866.186218 
	C250.632202,859.554565 250.725327,853.275269 256.828949,845.167664 
	C267.550720,830.925537 278.401825,816.779053 288.949768,802.409668 
	C290.574860,800.195862 291.644867,797.014282 291.665924,794.270264 
	C291.866669,768.106506 291.683014,741.939880 291.887604,715.776184 
	C291.921417,711.451538 290.592133,709.593872 286.389587,708.651367 
	C279.614777,707.131958 272.986053,704.961121 265.749847,702.910828 
	C265.625153,705.609192 265.444031,707.731445 265.441833,709.853821 
	C265.419495,731.185974 265.318359,752.519104 265.493896,773.849792 
	C265.543945,779.930481 263.639343,784.652222 259.258423,788.944519 
	C242.597931,805.268188 226.172272,821.831482 209.652817,838.299194 
	C203.801453,844.132202 196.094162,844.406006 190.163544,838.562805 
	C177.342941,825.931396 164.638794,813.179443 152.027252,800.339050 
	C145.674393,793.871094 145.703491,786.613281 152.115936,780.054199 
	C162.133759,769.807617 172.291351,759.694336 182.550217,749.689087 
	C185.039627,747.261292 185.906647,744.977295 185.539032,741.403259 
	C181.874817,705.778870 178.444504,670.130371 174.953125,634.488159 
	C174.563416,630.509705 174.111359,626.534302 173.849457,622.546936 
	C173.164474,612.117920 178.244736,606.635620 188.786789,606.523193 
	C198.118591,606.423767 207.452286,606.511902 216.785004,606.479309 
	C218.751114,606.472412 220.716660,606.300354 223.481857,606.165344 
	C222.869766,600.896484 222.382370,596.020691 221.725906,591.167664 
	C218.846924,569.884644 215.967575,548.601196 212.881241,527.348022 
	C212.706757,526.146484 210.814758,524.495728 209.507004,524.263000 
	C192.037811,521.154541 177.731079,512.846741 166.603180,498.990082 
	C157.666260,487.861725 154.211807,474.753876 153.166641,460.955322 
	C151.737625,442.089417 154.834793,423.739258 161.063873,405.942261 
	C164.589188,395.870148 176.977234,393.074005 183.431717,401.541565 
	C203.639679,428.052216 232.268097,439.774567 262.929077,448.013184 
	C267.199890,449.160736 272.149597,448.226013 276.726105,447.721039 
	C310.825653,443.958282 344.900604,439.969849 379.013214,436.332916 
	C382.816895,435.927368 387.148987,436.465698 390.661682,437.937256 
	C457.148621,465.790070 523.549744,493.847748 589.966797,521.867432 
	C599.576965,525.921692 609.177124,529.999634 619.338196,534.302124 
	C619.537231,532.221924 619.788025,530.807312 619.790405,529.392273 
	C619.818115,513.059814 619.745483,496.726898 619.861145,480.395264 
	C619.884277,477.127441 619.270935,475.497040 615.534241,474.685760 
	C578.445862,466.633301 541.414185,458.319672 504.370514,450.061615 
	C502.100647,449.555573 499.818451,449.031525 497.623047,448.279327 
	C492.217163,446.427032 488.776306,442.696381 488.720123,436.876862 
	C488.546387,418.881897 488.451904,400.881927 488.702179,382.889160 
	C488.799622,375.882904 493.190643,371.849243 501.189728,370.077393 
	C515.004211,367.017426 528.824829,363.985443 542.645386,360.953156 
	C550.611572,359.205383 558.587524,357.501282 566.548340,355.729279 
	C568.439331,355.308380 570.287170,354.693970 572.297913,354.128326 
	C571.919495,353.517273 571.864929,353.299652 571.745728,353.255096 
	C547.561462,344.210114 543.990845,319.607574 548.298950,299.472717 
	C549.116638,295.651154 551.126282,291.878052 546.627930,288.813019 
	C545.971069,288.365448 546.003479,285.413391 546.297913,285.312286 
	C547.848206,284.779968 549.715576,284.292755 551.236511,284.691437 
	C564.276550,288.110260 577.236084,291.836578 590.279785,295.240784 
	C599.780396,297.720276 609.317017,300.135406 618.950256,301.996002 
	C622.725586,302.725159 626.808228,301.863098 630.750854,301.725708 
	C630.739197,301.246613 630.727478,300.767517 630.715820,300.288391 
	C610.042480,294.640320 589.369141,288.992279 568.695801,283.344208 
	C568.678772,283.222565 568.661743,283.100922 568.644714,282.979279 
	C594.176819,284.617188 619.708862,286.255127 645.972717,287.939972 
	C645.972717,283.386932 646.221008,279.913483 645.841248,276.510132 
	C645.703918,275.279236 644.293030,273.685120 643.072998,273.154755 
	C617.425903,262.006012 591.750427,250.921219 566.016296,239.974945 
	C556.591003,235.965775 554.070557,232.526138 554.065491,222.187820 
	C554.058472,208.021912 554.063354,193.856018 554.063232,179.690109 
	C554.063232,177.881958 554.063293,176.073822 554.063293,173.884613 
	C562.919312,173.884613 571.315430,173.884613 580.283630,173.884613 
	C580.283630,185.402618 580.808655,196.571854 580.100159,207.662277 
	C579.623169,215.128815 581.960815,218.959015 589.086243,221.504120 
	C600.004700,225.404037 610.517578,230.439194 621.202637,234.992523 
	C621.489746,234.679276 621.776855,234.366028 622.063965,234.052795 
	C619.291870,231.230331 616.701660,228.195358 613.707764,225.632004 
	C608.344238,221.039856 606.416199,215.464249 606.547913,208.411545 
	C606.887207,190.252197 606.661499,172.082291 606.661499,153.916611 
	C606.661499,151.944916 606.661499,149.973221 606.661499,147.250488 
	C615.069824,147.250488 622.990173,147.120682 630.890137,147.463547 
	C631.630493,147.495667 632.810913,150.506363 632.824707,152.142242 
	C632.968018,169.140121 632.792664,186.141495 633.048706,203.136734 
	C633.085999,205.614639 634.313416,208.648300 636.024658,210.432892 
	C646.057617,220.896164 656.312256,231.152283 666.679016,241.287216 
	C670.532532,245.054565 672.284119,249.281662 672.181763,254.638290 
	C672.000305,264.134308 672.132629,273.636292 672.133606,283.135773 
	C672.133728,284.902863 672.133545,286.669922 672.133545,289.044922 
	C683.795898,285.801300 694.592712,282.505524 705.555054,279.907776 
	C709.409668,278.994293 713.852112,279.030182 717.710205,279.953217 
	C728.673706,282.576324 739.474304,285.880493 750.961914,289.090668 
	C750.961914,277.740082 751.230591,266.946991 750.863464,256.175598 
	C750.634644,249.461533 752.923279,244.392563 757.700317,239.803650 
	C767.673950,230.222870 777.449036,220.426834 787.035400,210.459320 
	C788.755920,208.670380 790.026306,205.646439 790.064331,203.170578 
	C790.325256,186.175476 790.311890,169.173279 790.122437,152.176315 
	C790.078186,148.209778 791.317200,146.926102 795.251465,147.085068 
	C802.047668,147.359680 808.862915,147.161209 816.089172,147.161209 
	C816.272644,149.739563 816.549622,151.853775 816.553589,153.968521 
	C816.587708,171.967484 816.375732,189.969742 816.668518,207.963989 
	C816.785278,215.137711 815.001587,221.018814 809.324585,225.611816 
	C806.247070,228.101685 803.390076,230.864166 800.433533,233.503601 
	C800.803406,234.018204 801.173340,234.532791 801.543274,235.047394 
	C803.569580,234.189377 805.597046,233.334030 807.622009,232.472931 
	C817.734131,228.173035 827.777283,223.699051 837.991943,219.658539 
	C841.896484,218.114059 843.028076,215.880249 842.946106,211.833084 
	C842.693359,199.359558 842.853882,186.877670 842.853882,173.948700 
	C851.662720,173.948700 860.041626,173.948700 869.004761,173.948700 
	C869.004761,180.243759 869.004822,186.363251 869.004639,192.482742 
	C869.004272,202.982178 869.024414,213.481659 868.996582,223.981018 
	C868.975403,231.945694 866.051636,236.160156 858.642395,239.318054 
	C832.916382,250.282837 807.229919,261.341125 781.454285,272.187897 
	C778.208740,273.553680 776.537109,275.179626 777.077148,278.768036 
	C777.273376,280.071716 777.108154,281.429779 777.108093,282.763031 
	C777.107605,297.832336 777.107544,297.832336 792.526672,300.810242 
	C793.264526,298.742706 793.988525,296.591309 794.795532,294.471527 
	C804.340332,269.401367 827.861023,252.886139 855.417358,252.239151 
	C868.242981,251.938019 881.082275,252.075989 893.913452,252.203522 
	C902.873535,252.292557 907.908325,257.246490 908.264893,266.025330 
	C908.914612,282.024292 908.014893,297.751129 899.133545,311.832794 
	C886.739746,331.483368 869.078369,342.661377 845.737244,343.920807 
	C835.466980,344.474976 825.142090,344.014130 814.809448,344.014130 
	C814.432983,345.226196 814.131348,345.819550 814.074036,346.435638 
	C810.560730,384.184479 807.049744,421.933502 803.602600,459.688416 
	C803.300842,462.993164 803.369080,466.337219 803.368225,469.663086 
	C803.354858,521.160339 803.356323,572.657532 803.360962,624.154785 
	C803.361633,631.436829 803.388794,631.546021 810.450623,630.836975 
	C844.425598,627.425049 878.394348,623.949646 912.364990,620.494263 
	C913.027893,620.426880 913.686523,620.316956 914.349304,620.247681 
	C929.886353,618.623901 934.689026,622.957275 934.690796,638.655151 
	C934.696716,691.985596 934.694885,745.316040 934.678345,798.646484 
	C934.677673,800.807434 934.684631,802.996460 934.365601,805.124084 
	C933.396240,811.588440 929.264038,816.026794 922.779175,816.197998 
	C908.960327,816.562927 895.119568,816.587097 881.300537,816.241028 
	C874.344727,816.066772 870.021301,811.641052 868.916138,804.051331 
	C867.044739,791.198792 865.600708,778.283752 864.003845,765.391663 
	C861.898926,748.398132 859.819885,731.401367 857.753235,714.596924 
	C831.997925,718.049866 806.758972,722.774963 781.318298,724.467590 
	C755.790466,726.165955 730.061462,724.840942 703.745361,724.840942 
	C704.142517,726.785767 704.305237,728.191406 704.718506,729.518982 
	C724.115906,791.826416 743.518188,854.132385 762.970276,916.422668 
	C765.868164,925.702515 760.928528,934.256775 751.132507,934.572083 
	C733.487000,935.140137 715.807556,934.933899 698.148193,934.663208 
	C690.610657,934.547729 686.888611,928.995789 684.172119,922.765930 
	C675.120911,902.008301 666.099487,881.237671 656.931030,860.115845 
M636.085815,746.378418 
	C639.411194,754.010620 642.740784,761.640930 646.061035,769.275330 
	C658.014465,796.760193 669.939270,824.257629 681.980408,851.703979 
	C682.693054,853.328308 684.292725,855.725342 685.545776,855.766907 
	C695.605652,856.100220 705.681458,855.953369 716.385498,855.953369 
	C715.480103,852.935425 714.838562,850.729126 714.156982,848.535217 
	C700.673462,805.133179 687.111328,761.755188 673.828796,718.291809 
	C672.679688,714.531677 672.315002,709.898254 673.400513,706.203613 
	C677.151733,693.435730 681.677979,680.894226 685.970642,668.287415 
	C687.463318,663.903931 690.501160,661.088745 694.956604,659.637817 
	C703.185852,656.957947 711.273743,653.795959 719.601135,651.485962 
	C723.887939,650.296753 724.856018,648.221069 724.846985,644.118835 
	C724.727539,589.954163 724.709961,535.789001 724.866211,481.624542 
	C724.880005,476.838562 723.565186,475.352905 718.718018,475.403381 
	C696.387817,475.636078 674.053894,475.497101 651.721252,475.524017 
	C649.960205,475.526154 648.199402,475.777496 645.990173,475.947540 
	C645.990173,478.384521 645.990234,480.350586 645.990112,482.316681 
	C645.988464,505.815918 646.054871,529.315491 645.954834,552.814270 
	C645.908691,563.659729 637.479980,569.518127 627.254333,566.047546 
	C625.995361,565.620178 624.768860,565.091980 623.542419,564.574646 
	C592.250610,551.375732 560.964233,538.163879 529.669922,524.970825 
	C482.881195,505.245697 436.058807,485.599701 389.334717,465.722656 
	C384.078064,463.486389 379.041168,462.576996 373.399719,463.229462 
	C341.470367,466.922485 309.513428,470.378662 277.594788,474.159241 
	C275.360931,474.423859 272.556946,476.154999 271.376984,478.050201 
	C261.341858,494.168335 251.530716,510.429108 241.914215,526.800903 
	C240.608047,529.024536 239.989532,532.201050 240.336624,534.762329 
	C244.004105,561.825500 247.914352,588.855835 251.797440,615.889526 
	C253.295944,626.321960 248.023834,632.695923 237.483292,632.809448 
	C227.318100,632.918884 217.150848,632.824158 206.984573,632.852234 
	C205.216232,632.857178 203.448334,633.026550 201.528641,633.127930 
	C201.614975,634.835754 201.627426,635.991821 201.738129,637.138428 
	C204.555756,666.319946 208.111572,695.455872 209.902786,724.699890 
	C210.798737,739.327759 215.200256,750.846008 226.870682,759.729248 
	C230.985825,762.861511 234.416367,766.893188 239.133408,771.456421 
	C239.133408,767.203369 239.133270,764.415649 239.133453,761.627991 
	C239.135025,736.795471 239.072266,711.962708 239.167770,687.130554 
	C239.209976,676.160889 246.219864,670.695801 256.923889,673.010803 
	C258.709839,673.397034 260.460632,673.951172 262.219574,674.455933 
	C287.498413,681.709900 312.761078,689.021484 338.082855,696.122009 
	C340.024475,696.666443 342.793701,696.400574 344.474182,695.366821 
	C351.989960,690.743469 359.167999,685.573608 366.644104,680.881775 
	C369.578003,679.040527 370.473877,676.831116 370.432556,673.507996 
	C370.277130,661.010376 370.320557,648.509338 370.385681,636.010071 
	C370.455658,622.589905 378.074524,617.113220 390.674042,621.533691 
	C425.388306,633.713257 460.078827,645.960754 494.764771,658.220825 
	C532.903503,671.701477 571.011780,685.268799 609.174561,698.681030 
	C614.285278,700.477173 617.560303,703.650879 619.653320,708.577881 
	C624.926453,720.990723 630.413391,733.312744 636.085815,746.378418 
M746.947693,344.623627 
	C743.141296,344.421997 739.322754,344.350006 735.531006,343.992737 
	C726.601257,343.151215 726.604980,343.095612 723.284485,351.728943 
	C722.985779,352.505585 722.720215,353.295044 722.442383,354.079590 
	C715.472473,373.759613 700.558472,382.806335 680.673218,384.279510 
	C661.990967,385.663544 647.382080,374.722839 644.477539,357.082031 
	C643.363953,350.318634 644.414612,343.186829 644.602539,336.226227 
	C644.702209,332.532501 645.066162,328.845917 645.355896,324.477325 
	C642.447937,325.153656 640.715149,325.697998 638.941040,325.941467 
	C634.486145,326.552826 632.431580,328.457794 632.774841,333.485779 
	C633.295837,341.115723 633.019043,348.810486 632.863525,356.473297 
	C632.711487,363.961853 628.865723,368.519012 621.507141,370.172363 
	C604.945251,373.893402 588.390625,377.653168 571.782104,381.155640 
	C568.120056,381.927917 567.027893,383.497040 567.075012,387.164673 
	C567.271973,402.493896 567.218018,417.827576 567.109497,433.158539 
	C567.088074,436.176971 567.942871,437.551025 571.131042,438.129120 
	C578.166870,439.404846 585.073730,441.381195 592.098816,442.729675 
	C603.993896,445.012909 615.904175,448.595276 627.871094,448.868103 
	C663.682129,449.684723 699.523743,449.137726 735.353394,449.179199 
	C745.725342,449.191223 750.933289,454.236633 750.939758,464.400970 
	C750.980652,528.727722 750.973328,593.054504 750.941406,657.381226 
	C750.937561,665.179199 747.871216,669.406982 740.471863,671.935120 
	C731.335815,675.056641 722.135864,677.990906 712.993591,681.094666 
	C711.470947,681.611572 709.301453,682.236328 708.802063,683.399841 
	C706.821716,688.013428 705.385742,692.860779 703.447021,698.496460 
	C706.575500,698.496460 708.542297,698.496460 710.509094,698.496460 
	C730.340393,698.496460 750.171692,698.501343 770.002991,698.493896 
	C777.091187,698.491211 777.098938,698.477722 777.099121,691.518860 
	C777.101074,617.859741 777.059570,544.200500 777.161560,470.541534 
	C777.172180,462.898468 777.857605,455.241333 778.527100,447.616821 
	C781.309875,415.924225 784.097534,384.231049 787.172852,352.566193 
	C787.664307,347.505829 785.806641,346.140228 781.331970,346.011047 
	C770.178711,345.689026 759.030945,345.179901 746.947693,344.623627 
M375.188232,706.705627 
	C367.685211,711.662598 360.106049,716.509338 352.708221,721.618652 
	C348.407684,724.588806 344.050964,725.420837 339.032166,723.864075 
	C332.244904,721.759033 325.373199,719.926086 317.976715,717.816345 
	C317.976715,720.425476 317.976715,722.403625 317.976715,724.381714 
	C317.976685,748.042358 317.922729,771.703186 318.010284,795.363525 
	C318.035736,802.235901 318.508759,809.117188 312.621582,814.622559 
	C319.175629,820.133179 325.331116,825.308777 331.848358,830.788513 
	C334.911743,826.247620 337.383179,822.097290 340.343262,818.331055 
	C343.412994,814.425415 344.290100,810.245361 344.197784,805.362976 
	C343.945892,792.037842 344.062744,778.704468 344.135590,765.374939 
	C344.179291,757.375061 347.671875,752.947449 355.331726,751.015686 
	C367.432800,747.963989 379.577118,745.080200 391.650848,741.925293 
	C396.760742,740.590088 402.209534,739.559692 406.677612,736.966370 
	C416.023682,731.541931 424.905792,725.293091 433.773254,719.089600 
	C435.581787,717.824402 437.285706,715.417053 437.680450,713.284912 
	C440.195160,699.701660 442.227203,686.029541 444.664459,672.430847 
	C445.242645,669.204956 444.164795,668.006470 441.288483,667.114807 
	C436.048431,665.490479 430.927429,663.485291 425.740387,661.686157 
	C416.350037,658.429077 406.947632,655.206604 396.742554,651.691467 
	C396.742554,654.200623 396.742676,655.977051 396.742554,657.753479 
	C396.741974,666.084717 396.591431,674.419434 396.788116,682.746033 
	C396.945282,689.399719 394.256256,694.257568 388.710114,697.768494 
	C384.348999,700.529358 380.081665,703.438354 375.188232,706.705627 
M825.950439,655.424805 
	C819.991272,656.003540 814.038391,656.661987 808.070557,657.130188 
	C804.668396,657.397034 803.173401,658.690247 803.269775,662.416992 
	C803.519287,672.064880 803.330811,681.723755 803.374512,691.377930 
	C803.380798,692.768799 803.703369,694.158142 803.917969,695.851868 
	C824.969849,692.390503 845.463928,689.039673 865.950439,685.643005 
	C873.919495,684.321716 880.640625,688.934265 881.974060,696.839111 
	C882.444031,699.625122 882.685425,702.449707 883.034973,705.256104 
	C884.367126,715.952026 885.700928,726.647705 887.095093,737.833069 
	C892.490173,737.833069 897.470886,737.570496 902.410095,737.910889 
	C906.865784,738.217896 908.454651,736.901611 908.416321,732.165466 
	C908.202209,705.700806 908.321289,679.233398 908.298706,652.766968 
	C908.297180,651.028992 908.065552,649.291077 907.927185,647.360168 
	C880.472778,650.044434 853.664124,652.665527 825.950439,655.424805 
M205.767426,453.767029 
	C197.429474,448.423950 189.091507,443.080872 179.755173,437.098022 
	C179.493591,443.745789 178.585526,449.708588 179.147064,455.529633 
	C181.517197,480.099304 189.879822,492.715271 214.427109,498.773560 
	C226.388397,501.725616 226.506592,501.297180 232.969330,490.798187 
	C235.322418,486.975433 237.631393,483.125031 239.921402,479.264069 
	C241.577728,476.471436 243.169525,473.640533 244.381500,471.536163 
	C231.423706,465.582062 218.924515,459.838684 205.767426,453.767029 
M830.946594,287.425079 
	C821.549011,295.323517 816.699402,305.255280 816.633362,317.887573 
	C826.710022,317.887573 836.033386,318.380646 845.285706,317.779480 
	C861.843689,316.703674 875.816711,305.277740 880.397461,289.649750 
	C881.389282,286.265961 881.658936,282.670471 882.352844,278.640381 
	C872.426758,278.640381 863.474182,278.570557 854.523071,278.660400 
	C845.909363,278.746887 838.269592,281.680359 830.946594,287.425079 
M692.418762,319.043335 
	C713.399475,323.959076 733.991272,330.528534 755.477844,333.306671 
	C764.663208,334.494293 773.718262,336.668793 782.855225,338.265472 
	C785.375305,338.705872 788.622559,339.636139 788.680603,335.311249 
	C788.726318,331.906250 791.097717,327.801056 785.150696,326.184998 
	C767.665405,321.433472 750.043640,316.987640 732.947815,311.059357 
	C718.320862,305.987183 704.406433,304.979065 690.099792,311.316132 
	C686.593140,312.869354 682.689453,313.526215 678.968323,314.595184 
	C679.031677,314.966248 679.095032,315.337311 679.158447,315.708374 
	C683.307800,316.772949 687.457153,317.837494 692.418762,319.043335 
M651.684570,325.145142 
	C650.228516,331.247253 647.956177,337.286255 647.478577,343.464020 
	C646.319702,358.454010 653.655029,371.677795 665.582092,375.267670 
	C690.478638,382.761230 711.871887,371.871124 717.137634,343.644287 
	C718.042236,338.795197 717.212708,335.683197 712.034119,334.373047 
	C694.660278,329.977692 677.335388,325.387268 659.937439,321.091431 
	C656.848267,320.328674 653.504883,320.630768 651.684570,325.145142 
M516.519592,425.840576 
	C524.497375,427.620972 532.475159,429.401398 540.721375,431.241699 
	C540.721375,416.596558 540.721375,402.865051 540.721375,388.389923 
	C535.658325,389.508759 530.997253,390.492798 526.358643,391.572815 
	C514.832336,394.256409 514.738953,394.275146 514.876282,406.275574 
	C514.949585,412.680481 515.427551,419.080811 516.519592,425.840576 
M210.385193,780.114868 
	C206.900635,776.672485 203.416077,773.230103 200.381104,770.231873 
	C193.200027,777.382019 186.531540,784.021790 180.071655,790.453857 
	C186.565308,796.965759 193.201828,803.620911 199.636902,810.074036 
	C206.188843,803.425903 212.803741,796.713928 220.332932,789.074219 
	C217.532166,786.560791 214.213699,783.582825 210.385193,780.114868 
M571.625610,301.761017 
	C582.603271,304.441040 593.603333,307.034149 604.546021,309.850220 
	C608.164185,310.781372 610.552795,310.075531 611.925476,306.158600 
	C598.670105,302.845276 585.655029,299.469513 572.568909,296.396667 
	C568.713928,295.491486 564.662476,295.392151 560.692322,295.016632 
	C556.610107,294.630493 554.103577,295.729095 554.252869,300.672028 
	C554.340454,303.575195 553.080933,306.510345 552.492004,309.444092 
	C549.111023,326.285217 558.616089,343.080078 573.975830,347.437683 
	C587.662781,351.320740 597.562317,348.088898 604.709290,336.866852 
	C606.240662,334.462219 606.343750,331.147949 607.104797,328.252747 
	C606.648010,328.153625 606.191223,328.054504 605.734436,327.955383 
	C603.421448,331.176727 601.201111,334.470001 598.771851,337.601135 
	C595.770752,341.469391 591.786133,343.932495 586.829102,343.909058 
	C576.503052,343.860199 567.070068,340.821320 561.363525,331.806488 
	C555.090576,321.896881 555.994141,311.029388 559.478943,299.949982 
	C563.571228,300.527588 567.180420,301.037018 571.625610,301.761017 
M732.452148,907.387390 
	C730.818298,901.825806 729.329407,896.216553 727.519409,890.712891 
	C724.138367,880.432495 726.808777,882.346680 715.890564,882.168640 
	C709.370300,882.062256 702.846863,882.149048 695.513184,882.149048 
	C699.350769,890.992615 702.639526,898.747559 706.137085,906.407104 
	C706.571411,907.358032 708.115356,908.388367 709.144592,908.387817 
	C716.744751,908.383850 724.344788,908.127625 732.452148,907.387390 
M313.661041,849.837952 
	C308.204803,845.267578 302.748535,840.697266 296.926819,835.820801 
	C292.082031,842.238159 287.511627,848.292053 282.640289,854.744568 
	C289.491425,861.204773 296.121002,867.456055 303.187317,874.119141 
	C307.115356,868.195862 311.073059,861.884583 315.409393,855.845154 
	C317.345886,853.148071 316.541595,851.721924 313.661041,849.837952 
M908.314819,783.419312 
	C908.314819,777.044617 908.314819,770.669922 908.314819,764.375366 
	C901.892822,764.375366 896.497009,764.375366 890.602539,764.375366 
	C891.281372,770.377380 891.819275,775.969604 892.565002,781.533936 
	C893.730408,790.230042 893.799683,789.954285 902.593933,790.272644 
	C907.252930,790.441284 908.983704,788.869019 908.314819,783.419312 
M799.606323,235.406494 
	C799.606323,235.406494 799.679993,235.525452 799.606323,235.406494 
z"/>
<path fill="#50638C" opacity="1.000000" stroke="none" 
	d="
M635.950195,746.024780 
	C630.413391,733.312744 624.926453,720.990723 619.653320,708.577881 
	C617.560303,703.650879 614.285278,700.477173 609.174561,698.681030 
	C571.011780,685.268799 532.903503,671.701477 494.764771,658.220825 
	C460.078827,645.960754 425.388306,633.713257 390.674042,621.533691 
	C378.074524,617.113220 370.455658,622.589905 370.385681,636.010071 
	C370.320557,648.509338 370.277130,661.010376 370.432556,673.507996 
	C370.473877,676.831116 369.578003,679.040527 366.644104,680.881775 
	C359.167999,685.573608 351.989960,690.743469 344.474182,695.366821 
	C342.793701,696.400574 340.024475,696.666443 338.082855,696.122009 
	C312.761078,689.021484 287.498413,681.709900 262.219574,674.455933 
	C260.460632,673.951172 258.709839,673.397034 256.923889,673.010803 
	C246.219864,670.695801 239.209976,676.160889 239.167770,687.130554 
	C239.072266,711.962708 239.135025,736.795471 239.133453,761.627991 
	C239.133270,764.415649 239.133408,767.203369 239.133408,771.456421 
	C234.416367,766.893188 230.985825,762.861511 226.870682,759.729248 
	C215.200256,750.846008 210.798737,739.327759 209.902786,724.699890 
	C208.111572,695.455872 204.555756,666.319946 201.738129,637.138428 
	C201.627426,635.991821 201.614975,634.835754 201.528641,633.127930 
	C203.448334,633.026550 205.216232,632.857178 206.984573,632.852234 
	C217.150848,632.824158 227.318100,632.918884 237.483292,632.809448 
	C248.023834,632.695923 253.295944,626.321960 251.797440,615.889526 
	C247.914352,588.855835 244.004105,561.825500 240.336624,534.762329 
	C239.989532,532.201050 240.608047,529.024536 241.914215,526.800903 
	C251.530716,510.429108 261.341858,494.168335 271.376984,478.050201 
	C272.556946,476.154999 275.360931,474.423859 277.594788,474.159241 
	C309.513428,470.378662 341.470367,466.922485 373.399719,463.229462 
	C379.041168,462.576996 384.078064,463.486389 389.334717,465.722656 
	C436.058807,485.599701 482.881195,505.245697 529.669922,524.970825 
	C560.964233,538.163879 592.250610,551.375732 623.542419,564.574646 
	C624.768860,565.091980 625.995361,565.620178 627.254333,566.047546 
	C637.479980,569.518127 645.908691,563.659729 645.954834,552.814270 
	C646.054871,529.315491 645.988464,505.815918 645.990112,482.316681 
	C645.990234,480.350586 645.990173,478.384521 645.990173,475.947540 
	C648.199402,475.777496 649.960205,475.526154 651.721252,475.524017 
	C674.053894,475.497101 696.387817,475.636078 718.718018,475.403381 
	C723.565186,475.352905 724.880005,476.838562 724.866211,481.624542 
	C724.709961,535.789001 724.727539,589.954163 724.846985,644.118835 
	C724.856018,648.221069 723.887939,650.296753 719.601135,651.485962 
	C711.273743,653.795959 703.185852,656.957947 694.956604,659.637817 
	C690.501160,661.088745 687.463318,663.903931 685.970642,668.287415 
	C681.677979,680.894226 677.151733,693.435730 673.400513,706.203613 
	C672.315002,709.898254 672.679688,714.531677 673.828796,718.291809 
	C687.111328,761.755188 700.673462,805.133179 714.156982,848.535217 
	C714.838562,850.729126 715.480103,852.935425 716.385498,855.953369 
	C705.681458,855.953369 695.605652,856.100220 685.545776,855.766907 
	C684.292725,855.725342 682.693054,853.328308 681.980408,851.703979 
	C669.939270,824.257629 658.014465,796.760193 646.061035,769.275330 
	C642.740784,761.640930 639.411194,754.010620 635.950195,746.024780 
M383.613617,502.484283 
	C383.608826,499.151703 384.000122,495.748505 383.424103,492.517761 
	C383.155334,491.010132 381.081848,488.780701 379.709381,488.692200 
	C373.404083,488.285522 367.052094,488.386230 360.730377,488.640839 
	C359.536957,488.688904 357.429474,490.229645 357.398102,491.138763 
	C357.130402,498.891479 357.244781,506.657379 357.244781,514.574646 
	C366.290070,514.574646 374.549866,514.574646 383.613556,514.574646 
	C383.613556,510.688934 383.613556,507.077179 383.613617,502.484283 
M475.497131,527.920593 
	C471.241943,527.920593 466.986725,527.920593 462.610291,527.920593 
	C462.610291,537.007385 462.610291,545.351929 462.610291,553.830017 
	C471.311340,553.830017 479.568756,553.830017 488.189941,553.830017 
	C488.189941,545.202209 488.189941,536.823608 488.189941,527.920593 
	C484.064941,527.920593 480.274445,527.920593 475.497131,527.920593 
M409.870361,556.464294 
	C409.870361,551.513489 409.870361,546.562683 409.870361,541.372742 
	C400.873291,541.372742 392.501495,541.372742 383.627106,541.372742 
	C383.627106,549.204895 383.533295,556.673401 383.737610,564.133667 
	C383.765320,565.144714 385.263733,566.948730 386.121735,566.973450 
	C393.868896,567.196045 401.625153,567.103699 409.870361,567.103699 
	C409.870361,563.370605 409.870361,560.407227 409.870361,556.464294 
M291.794098,548.371704 
	C291.899353,550.132568 292.004608,551.893494 292.115845,553.754395 
	C300.890686,553.754395 309.134064,553.754395 317.576019,553.754395 
	C317.576019,545.075928 317.576019,536.711121 317.576019,528.255310 
	C308.928619,528.255310 300.680756,528.255310 291.793457,528.255310 
	C291.793457,534.841797 291.793457,541.121521 291.794098,548.371704 
z"/>
<path fill="#50638C" opacity="1.000000" stroke="none" 
	d="
M747.414307,344.684753 
	C759.030945,345.179901 770.178711,345.689026 781.331970,346.011047 
	C785.806641,346.140228 787.664307,347.505829 787.172852,352.566193 
	C784.097534,384.231049 781.309875,415.924225 778.527100,447.616821 
	C777.857605,455.241333 777.172180,462.898468 777.161560,470.541534 
	C777.059570,544.200500 777.101074,617.859741 777.099121,691.518860 
	C777.098938,698.477722 777.091187,698.491211 770.002991,698.493896 
	C750.171692,698.501343 730.340393,698.496460 710.509094,698.496460 
	C708.542297,698.496460 706.575500,698.496460 703.447021,698.496460 
	C705.385742,692.860779 706.821716,688.013428 708.802063,683.399841 
	C709.301453,682.236328 711.470947,681.611572 712.993591,681.094666 
	C722.135864,677.990906 731.335815,675.056641 740.471863,671.935120 
	C747.871216,669.406982 750.937561,665.179199 750.941406,657.381226 
	C750.973328,593.054504 750.980652,528.727722 750.939758,464.400970 
	C750.933289,454.236633 745.725342,449.191223 735.353394,449.179199 
	C699.523743,449.137726 663.682129,449.684723 627.871094,448.868103 
	C615.904175,448.595276 603.993896,445.012909 592.098816,442.729675 
	C585.073730,441.381195 578.166870,439.404846 571.131042,438.129120 
	C567.942871,437.551025 567.088074,436.176971 567.109497,433.158539 
	C567.218018,417.827576 567.271973,402.493896 567.075012,387.164673 
	C567.027893,383.497040 568.120056,381.927917 571.782104,381.155640 
	C588.390625,377.653168 604.945251,373.893402 621.507141,370.172363 
	C628.865723,368.519012 632.711487,363.961853 632.863525,356.473297 
	C633.019043,348.810486 633.295837,341.115723 632.774841,333.485779 
	C632.431580,328.457794 634.486145,326.552826 638.941040,325.941467 
	C640.715149,325.697998 642.447937,325.153656 645.355896,324.477325 
	C645.066162,328.845917 644.702209,332.532501 644.602539,336.226227 
	C644.414612,343.186829 643.363953,350.318634 644.477539,357.082031 
	C647.382080,374.722839 661.990967,385.663544 680.673218,384.279510 
	C700.558472,382.806335 715.472473,373.759613 722.442383,354.079590 
	C722.720215,353.295044 722.985779,352.505585 723.284485,351.728943 
	C726.604980,343.095612 726.601257,343.151215 735.531006,343.992737 
	C739.322754,344.350006 743.141296,344.421997 747.414307,344.684753 
z"/>
<path fill="#50638C" opacity="1.000000" stroke="none" 
	d="
M375.480469,706.493591 
	C380.081665,703.438354 384.348999,700.529358 388.710114,697.768494 
	C394.256256,694.257568 396.945282,689.399719 396.788116,682.746033 
	C396.591431,674.419434 396.741974,666.084717 396.742554,657.753479 
	C396.742676,655.977051 396.742554,654.200623 396.742554,651.691467 
	C406.947632,655.206604 416.350037,658.429077 425.740387,661.686157 
	C430.927429,663.485291 436.048431,665.490479 441.288483,667.114807 
	C444.164795,668.006470 445.242645,669.204956 444.664459,672.430847 
	C442.227203,686.029541 440.195160,699.701660 437.680450,713.284912 
	C437.285706,715.417053 435.581787,717.824402 433.773254,719.089600 
	C424.905792,725.293091 416.023682,731.541931 406.677612,736.966370 
	C402.209534,739.559692 396.760742,740.590088 391.650848,741.925293 
	C379.577118,745.080200 367.432800,747.963989 355.331726,751.015686 
	C347.671875,752.947449 344.179291,757.375061 344.135590,765.374939 
	C344.062744,778.704468 343.945892,792.037842 344.197784,805.362976 
	C344.290100,810.245361 343.412994,814.425415 340.343262,818.331055 
	C337.383179,822.097290 334.911743,826.247620 331.848358,830.788513 
	C325.331116,825.308777 319.175629,820.133179 312.621582,814.622559 
	C318.508759,809.117188 318.035736,802.235901 318.010284,795.363525 
	C317.922729,771.703186 317.976685,748.042358 317.976715,724.381714 
	C317.976715,722.403625 317.976715,720.425476 317.976715,717.816345 
	C325.373199,719.926086 332.244904,721.759033 339.032166,723.864075 
	C344.050964,725.420837 348.407684,724.588806 352.708221,721.618652 
	C360.106049,716.509338 367.685211,711.662598 375.480469,706.493591 
z"/>
<path fill="#51648B" opacity="1.000000" stroke="none" 
	d="
M826.402954,655.355713 
	C853.664124,652.665527 880.472778,650.044434 907.927185,647.360168 
	C908.065552,649.291077 908.297180,651.028992 908.298706,652.766968 
	C908.321289,679.233398 908.202209,705.700806 908.416321,732.165466 
	C908.454651,736.901611 906.865784,738.217896 902.410095,737.910889 
	C897.470886,737.570496 892.490173,737.833069 887.095093,737.833069 
	C885.700928,726.647705 884.367126,715.952026 883.034973,705.256104 
	C882.685425,702.449707 882.444031,699.625122 881.974060,696.839111 
	C880.640625,688.934265 873.919495,684.321716 865.950439,685.643005 
	C845.463928,689.039673 824.969849,692.390503 803.917969,695.851868 
	C803.703369,694.158142 803.380798,692.768799 803.374512,691.377930 
	C803.330811,681.723755 803.519287,672.064880 803.269775,662.416992 
	C803.173401,658.690247 804.668396,657.397034 808.070557,657.130188 
	C814.038391,656.661987 819.991272,656.003540 826.402954,655.355713 
z"/>
<path fill="#51648B" opacity="1.000000" stroke="none" 
	d="
M206.096375,453.931152 
	C218.924515,459.838684 231.423706,465.582062 244.381500,471.536163 
	C243.169525,473.640533 241.577728,476.471436 239.921402,479.264069 
	C237.631393,483.125031 235.322418,486.975433 232.969330,490.798187 
	C226.506592,501.297180 226.388397,501.725616 214.427109,498.773560 
	C189.879822,492.715271 181.517197,480.099304 179.147064,455.529633 
	C178.585526,449.708588 179.493591,443.745789 179.755173,437.098022 
	C189.091507,443.080872 197.429474,448.423950 206.096375,453.931152 
z"/>
<path fill="#51648B" opacity="1.000000" stroke="none" 
	d="
M831.230225,287.203491 
	C838.269592,281.680359 845.909363,278.746887 854.523071,278.660400 
	C863.474182,278.570557 872.426758,278.640381 882.352844,278.640381 
	C881.658936,282.670471 881.389282,286.265961 880.397461,289.649750 
	C875.816711,305.277740 861.843689,316.703674 845.285706,317.779480 
	C836.033386,318.380646 826.710022,317.887573 816.633362,317.887573 
	C816.699402,305.255280 821.549011,295.323517 831.230225,287.203491 
z"/>
<path fill="#52648B" opacity="1.000000" stroke="none" 
	d="
M692.012634,318.972717 
	C687.457153,317.837494 683.307800,316.772949 679.158447,315.708374 
	C679.095032,315.337311 679.031677,314.966248 678.968323,314.595184 
	C682.689453,313.526215 686.593140,312.869354 690.099792,311.316132 
	C704.406433,304.979065 718.320862,305.987183 732.947815,311.059357 
	C750.043640,316.987640 767.665405,321.433472 785.150696,326.184998 
	C791.097717,327.801056 788.726318,331.906250 788.680603,335.311249 
	C788.622559,339.636139 785.375305,338.705872 782.855225,338.265472 
	C773.718262,336.668793 764.663208,334.494293 755.477844,333.306671 
	C733.991272,330.528534 713.399475,323.959076 692.012634,318.972717 
z"/>
<path fill="#576689" opacity="1.000000" stroke="none" 
	d="
M651.840210,324.789734 
	C653.504883,320.630768 656.848267,320.328674 659.937439,321.091431 
	C677.335388,325.387268 694.660278,329.977692 712.034119,334.373047 
	C717.212708,335.683197 718.042236,338.795197 717.137634,343.644287 
	C711.871887,371.871124 690.478638,382.761230 665.582092,375.267670 
	C653.655029,371.677795 646.319702,358.454010 647.478577,343.464020 
	C647.956177,337.286255 650.228516,331.247253 651.840210,324.789734 
M657.971741,362.428040 
	C661.714417,367.241943 666.720825,369.961487 672.593872,371.233948 
	C691.396484,375.307770 707.914001,364.474457 712.626099,345.166748 
	C713.500061,341.585815 712.897766,339.558929 709.048889,338.656799 
	C692.746460,334.835815 676.494629,330.794678 660.155029,327.144501 
	C658.825928,326.847565 656.046936,328.534790 655.510132,329.911621 
	C651.268066,340.790375 650.845398,351.586517 657.971741,362.428040 
z"/>
<path fill="#50648C" opacity="1.000000" stroke="none" 
	d="
M516.121277,425.661865 
	C515.427551,419.080811 514.949585,412.680481 514.876282,406.275574 
	C514.738953,394.275146 514.832336,394.256409 526.358643,391.572815 
	C530.997253,390.492798 535.658325,389.508759 540.721375,388.389923 
	C540.721375,402.865051 540.721375,416.596558 540.721375,431.241699 
	C532.475159,429.401398 524.497375,427.620972 516.121277,425.661865 
z"/>
<path fill="#51648B" opacity="1.000000" stroke="none" 
	d="
M210.640198,780.359863 
	C214.213699,783.582825 217.532166,786.560791 220.332932,789.074219 
	C212.803741,796.713928 206.188843,803.425903 199.636902,810.074036 
	C193.201828,803.620911 186.565308,796.965759 180.071655,790.453857 
	C186.531540,784.021790 193.200027,777.382019 200.381104,770.231873 
	C203.416077,773.230103 206.900635,776.672485 210.640198,780.359863 
z"/>
<path fill="#586789" opacity="1.000000" stroke="none" 
	d="
M571.207581,301.653748 
	C567.180420,301.037018 563.571228,300.527588 559.478943,299.949982 
	C555.994141,311.029388 555.090576,321.896881 561.363525,331.806488 
	C567.070068,340.821320 576.503052,343.860199 586.829102,343.909058 
	C591.786133,343.932495 595.770752,341.469391 598.771851,337.601135 
	C601.201111,334.470001 603.421448,331.176727 605.734436,327.955383 
	C606.191223,328.054504 606.648010,328.153625 607.104797,328.252747 
	C606.343750,331.147949 606.240662,334.462219 604.709290,336.866852 
	C597.562317,348.088898 587.662781,351.320740 573.975830,347.437683 
	C558.616089,343.080078 549.111023,326.285217 552.492004,309.444092 
	C553.080933,306.510345 554.340454,303.575195 554.252869,300.672028 
	C554.103577,295.729095 556.610107,294.630493 560.692322,295.016632 
	C564.662476,295.392151 568.713928,295.491486 572.568909,296.396667 
	C585.655029,299.469513 598.670105,302.845276 611.925476,306.158600 
	C610.552795,310.075531 608.164185,310.781372 604.546021,309.850220 
	C593.603333,307.034149 582.603271,304.441040 571.207581,301.653748 
z"/>
<path fill="#55658A" opacity="1.000000" stroke="none" 
	d="
M732.198486,907.669067 
	C724.344788,908.127625 716.744751,908.383850 709.144592,908.387817 
	C708.115356,908.388367 706.571411,907.358032 706.137085,906.407104 
	C702.639526,898.747559 699.350769,890.992615 695.513184,882.149048 
	C702.846863,882.149048 709.370300,882.062256 715.890564,882.168640 
	C726.808777,882.346680 724.138367,880.432495 727.519409,890.712891 
	C729.329407,896.216553 730.818298,901.825806 732.198486,907.669067 
z"/>
<path fill="#52648B" opacity="1.000000" stroke="none" 
	d="
M313.930969,850.066162 
	C316.541595,851.721924 317.345886,853.148071 315.409393,855.845154 
	C311.073059,861.884583 307.115356,868.195862 303.187317,874.119141 
	C296.121002,867.456055 289.491425,861.204773 282.640289,854.744568 
	C287.511627,848.292053 292.082031,842.238159 296.926819,835.820801 
	C302.748535,840.697266 308.204803,845.267578 313.930969,850.066162 
z"/>
<path fill="#51648B" opacity="1.000000" stroke="none" 
	d="
M908.314331,783.906921 
	C908.983704,788.869019 907.252930,790.441284 902.593933,790.272644 
	C893.799683,789.954285 893.730408,790.230042 892.565002,781.533936 
	C891.819275,775.969604 891.281372,770.377380 890.602539,764.375366 
	C896.497009,764.375366 901.892822,764.375366 908.314819,764.375366 
	C908.314819,770.669922 908.314819,777.044617 908.314331,783.906921 
z"/>
<path fill="#4F638C" opacity="1.000000" stroke="none" 
	d="
M799.643188,235.465973 
	C799.679993,235.525452 799.606323,235.406494 799.643188,235.465973 
z"/>
<path fill="#ECA652" opacity="1.000000" stroke="none" 
	d="
M383.613586,502.974854 
	C383.613556,507.077179 383.613556,510.688934 383.613556,514.574646 
	C374.549866,514.574646 366.290070,514.574646 357.244781,514.574646 
	C357.244781,506.657379 357.130402,498.891479 357.398102,491.138763 
	C357.429474,490.229645 359.536957,488.688904 360.730377,488.640839 
	C367.052094,488.386230 373.404083,488.285522 379.709381,488.692200 
	C381.081848,488.780701 383.155334,491.010132 383.424103,492.517761 
	C384.000122,495.748505 383.608826,499.151703 383.613586,502.974854 
z"/>
<path fill="#EDA752" opacity="1.000000" stroke="none" 
	d="
M475.990540,527.920593 
	C480.274445,527.920593 484.064941,527.920593 488.189941,527.920593 
	C488.189941,536.823608 488.189941,545.202209 488.189941,553.830017 
	C479.568756,553.830017 471.311340,553.830017 462.610291,553.830017 
	C462.610291,545.351929 462.610291,537.007385 462.610291,527.920593 
	C466.986725,527.920593 471.241943,527.920593 475.990540,527.920593 
z"/>
<path fill="#F1A851" opacity="1.000000" stroke="none" 
	d="
M409.870361,556.954102 
	C409.870361,560.407227 409.870361,563.370605 409.870361,567.103699 
	C401.625153,567.103699 393.868896,567.196045 386.121735,566.973450 
	C385.263733,566.948730 383.765320,565.144714 383.737610,564.133667 
	C383.533295,556.673401 383.627106,549.204895 383.627106,541.372742 
	C392.501495,541.372742 400.873291,541.372742 409.870361,541.372742 
	C409.870361,546.562683 409.870361,551.513489 409.870361,556.954102 
z"/>
<path fill="#F2A950" opacity="1.000000" stroke="none" 
	d="
M291.793762,547.886475 
	C291.793457,541.121521 291.793457,534.841797 291.793457,528.255310 
	C300.680756,528.255310 308.928619,528.255310 317.576019,528.255310 
	C317.576019,536.711121 317.576019,545.075928 317.576019,553.754395 
	C309.134064,553.754395 300.890686,553.754395 292.115845,553.754395 
	C292.004608,551.893494 291.899353,550.132568 291.793762,547.886475 
z"/>
<path fill="#F0A851" opacity="1.000000" stroke="none" 
	d="
M657.743530,362.140076 
	C650.845398,351.586517 651.268066,340.790375 655.510132,329.911621 
	C656.046936,328.534790 658.825928,326.847565 660.155029,327.144501 
	C676.494629,330.794678 692.746460,334.835815 709.048889,338.656799 
	C712.897766,339.558929 713.500061,341.585815 712.626099,345.166748 
	C707.914001,364.474457 691.396484,375.307770 672.593872,371.233948 
	C666.720825,369.961487 661.714417,367.241943 657.743530,362.140076 
z"/>
</svg>